<svg id="Ebene_1" data-name="Ebene 1" xmlns="http://www.w3.org/2000/svg" width="316.96" height="490.97" viewBox="0 0 316.96 490.97"><title>door</title>
<path d="M366.13,56.6l-3.3-.92-9.19-2.55-14-3.88-17.78-4.94-20.32-5.65L279.7,32.59l-22.3-6.2-21.65-6-19.93-5.54L198.7,10.08,185.44,6.4l-8.2-2.28c-2.61-.72-5.07-1.44-7.68.07s-3.56,4.18-3.56,7V487c0,.65,0,1.32,0,2,.07,3.37,3.12,5.43,6.31,5.31a10.46,10.46,0,0,0,2.36-.44l6.05-1.63,11.42-3.09,15.71-4.24,19-5.12,21.11-5.7,22.2-6,22.22-6,21.17-5.71,19-5.15,15.85-4.27L360,443.78l6.22-1.68c.48-.13,1-.25,1.44-.42a9.44,9.44,0,0,0,6.21-9c0-.8,0-1.6,0-2.41l0-6,0-9.19,0-12.08,0-14.63.05-16.94.06-18.75.06-20.3.06-21.52.07-22.41.07-23,.07-23.18.07-23.05.07-22.61.06-21.83.06-20.79.06-19.25.05-17.46.05-15.34,0-12.89,0-10.1,0-7c0-1.18,0-2.35,0-3.53A12.15,12.15,0,0,0,366.13,56.6ZM252,260a8.09,8.09,0,0,1-6,7.74,15,15,0,0,1-3.84.26H221.56a27.91,27.91,0,0,0-4.19,0c-.21,0-.28,0-.37.08s0,.95,0,1.15v20.16c0,1,0,2.07,0,3.1a8.5,8.5,0,1,1-17-.18c0-2,0-3.95,0-5.92V224.17a10.82,10.82,0,0,1,.35-3.1,8.51,8.51,0,0,1,16.45.57,17.88,17.88,0,0,1,.2,3.8v23.08a4.17,4.17,0,0,0,0,1.32c.18.34,1.15.16,1.59.16h20.54c3.72,0,7.76-.52,10.62,2.44C251.83,254.59,252,257.19,252,260Z M200,256V262A13.44,13.44,0,0,1,200,256Z M146,21H117.32c-4.23,0-8.46,0-12.68,0A10.39,10.39,0,0,0,94,31.29c0,1.81,0,3.62,0,5.43l0,13.63,0,20.68.06,26.48.07,31.4L94.31,164l.09,37.61.08,39,.09,39.31.08,38.26.08,36.49.07,33.37.07,29.12,0,23.76,0,17.24,0,9.58c0,.54,0,1.07,0,1.61A7.88,7.88,0,0,0,98.74,476a9.78,9.78,0,0,0,5.16,1.13l33.19.66L146,478V444c0-.16.11-.86,0-1s-1.15,0-1.4,0h-4.1c-2.77,0-5.37-.06-7.62-2-2.94-2.51-2.9-5.76-2.91-9.16l0-10.43,0-17L129.84,382l-.07-27-.08-30.34L129.61,292l-.09-34.07-.09-34.12-.08-33.49-.08-31.61-.08-28.52-.06-24.69,0-19.59,0-13.51c0-2.12,0-4.25,0-6.38a9.82,9.82,0,0,1,4.3-8.39c2.39-1.58,5-1.59,7.72-1.59H145c.33,0,.87.12,1-.11s0-.91,0-1.15V21Z M306,21l6,1.65,15,4.14,19.45,5.37,19.62,5.41,15.23,4.2c2.13.59,4.26,1.14,6.37,1.76,3.5,1,5.33,4.11,5.33,7.6V446.94a8.8,8.8,0,0,1-6.28,8.79c-2,.59-4,1.12-6.05,1.67l-15.11,4.17L346,467l-19.5,5.38-14.84,4.1L306,478h88.07c2.74,0,5.47,0,8.21,0a7.82,7.82,0,0,0,7.74-8.09V466.6l0-6.33,0-9.12,0-11.66,0-13.95,0-16,0-17.74,0-19.46,0-20.62,0-21.79.05-22.62.05-23.22.06-23.58,0-23.68.05-23.55.05-23.08.05-22.65.05-21.6,0-20.59,0-19.25,0-17.65,0-15.82,0-13.74,0-11.42,0-8.83V32.58c0-1,0-2,0-3A8.39,8.39,0,0,0,402.53,21c-3,0-6,0-8.95,0H306Z"/></svg>