<svg id="Ebene_1" data-name="Ebene 1" xmlns="http://www.w3.org/2000/svg" width="441.84" height="467.72" viewBox="0 0 441.84 467.72"><title>wall</title>
<path d="M176.16,13.55,184,15.8l19.89,5.68L230.12,29l27,7.71L279.38,43l11.87,3.39a20,20,0,0,1,8.19,4.39,19,19,0,0,1,6.06,14q0,9.74,0,19.46v25.13c0,2.23.19,4.59-.49,6.74a10.77,10.77,0,0,1-12,7.27c-3.22-.49-6.42-1-9.63-1.58l-21.53-3.54-27.33-4.49-27.39-4.5-21.37-3.52c-3.12-.51-6.25-1-9.37-1.54A20.57,20.57,0,0,1,163,95.87a21.16,21.16,0,0,1-3.69-12.11l-.21-19.27-.29-27.25-.09-8.6c0-3,.19-5.93,1.73-8.65A13.83,13.83,0,0,1,176.16,13.55Z M330,72v47.82a15.66,15.66,0,0,0,3.53,9.9,14.44,14.44,0,0,0,8.61,5.3l2.52.42,12.59,2.1,37.21,6.2,14.35,2.39c2.78.46,6,1.4,8.69.34a8,8,0,0,0,5-7.52c0-1.37,0-2.73,0-4.1V100.44c0-1.21,0-2.41,0-3.62a13.63,13.63,0,0,0-4.39-10c-2.61-2.37-5.8-3.09-9.07-4l-13-3.52-36.72-10-14.23-3.87c-2.12-.57-4.47-1.54-6.68-1.66C334,63.56,330.09,67.7,330,72Z M30.5,130.56v61.73a21.48,21.48,0,0,0,21.32,21.77l4.45.11,21,.55,31.36.81,35.46.93,32.61.85,23.51.61c4.17.11,9.09.8,13.07-.69a14.46,14.46,0,0,0,9.23-13.84V149.88c0-5.61-2-10.86-6.34-14.54a19,19,0,0,0-9.88-4.12l-5.38-.73-22.24-3-32-4.34-35-4.75-31.61-4.28-21.27-2.89L54,110.57a21.46,21.46,0,0,0-13,2A20.18,20.18,0,0,0,30.5,130.56Z M257.5,151.82v51c0,1.06,0,2.13,0,3.19a13.21,13.21,0,0,0,8.26,11.89c3,1.21,6.53,1,9.74,1.06l16.42.44,22.13.58,22.39.59,17.15.45a60.6,60.6,0,0,0,8,.11,11.28,11.28,0,0,0,9.9-10.13c.12-1.38,0-2.78,0-4.16V168a21.1,21.1,0,0,0-.45-5.66,13.12,13.12,0,0,0-10.72-9.45c-2.37-.35-4.75-.66-7.12-1l-17.39-2.44-22.29-3.13-21.91-3.07-16-2.24c-3.29-.46-6.78-1.31-10-.29A11.7,11.7,0,0,0,257.5,151.82Z M256,359.91l.28,11.28.55,22.18.39,15.59a10.66,10.66,0,0,0,3,7.74,10.15,10.15,0,0,0,9.76,2.41c2.87-.77,5.73-1.56,8.6-2.34L296.26,412,318,406.05l21-5.7,15.14-4.12c3.36-.91,6.82-1.62,9.75-3.63a17.24,17.24,0,0,0,7.45-13.4c.06-1.39,0-2.8,0-4.19L371,355.16l-.27-18.33a13,13,0,0,0-1.31-6.49,10.21,10.21,0,0,0-10.44-5c-2.83.41-5.65.88-8.47,1.32l-18.27,2.86L309.67,333,289,336.26l-13.29,2.07-2,.32A21,21,0,0,0,256,359.91Z M30.5,399.54v64.79c0,.68,0,1.36,0,2a15,15,0,0,0,4.91,10.54,15.26,15.26,0,0,0,14.43,3.25L54,479l20-5.52L104.61,465l34.53-9.53,32.46-9,24.2-6.68c3.25-.9,6.51-1.78,9.75-2.69A23.31,23.31,0,0,0,221.68,421c.94-3.43.82-6.91.82-10.42V365.33c0-.71,0-1.43,0-2.14a13.51,13.51,0,0,0-4.6-10.09,13.85,13.85,0,0,0-11.61-3l-5,.81-22,3.55-32.11,5.19-35.44,5.72-32.15,5.19-22.19,3.58-5.29.86a26.15,26.15,0,0,0-11,4.28A24.88,24.88,0,0,0,30.5,399.54Z M329.5,247.68v44.38c0,4.06-.42,8.22,2.72,11.41a9.69,9.69,0,0,0,8.1,2.75l2.74-.32,12.81-1.52,37.56-4.44,14.78-1.75c2.38-.28,5.06-.32,7.37-1.06a10.1,10.1,0,0,0,6.92-9.5c0-1,0-2,0-2.95V250.15c0-3.89.67-8.5-2.06-11.68a8.84,8.84,0,0,0-6.8-3h-68.2c-3.45,0-6.78-.17-9.91,1.66A12.29,12.29,0,0,0,329.5,247.68Z M157.9,259.91l.31,14.45.6,27.36c.12,5.7.23,11.39.37,17.09a13.18,13.18,0,0,0,7.58,11.75,14.19,14.19,0,0,0,7.93.95l12.49-1.64,22.95-3,27.69-3.63,26.68-3.5,19.94-2.61a79.57,79.57,0,0,0,9.11-1.29,14.63,14.63,0,0,0,10.95-14c0-1.58,0-3.16,0-4.74V271.48c0-6.27,0-12.54,0-18.8a13,13,0,0,0-7.79-12,15.31,15.31,0,0,0-6.35-1l-13.62.19-23.94.32-28.12.39-26.17.35-18.06.25-4.08.05A19,19,0,0,0,166,244.32,18.42,18.42,0,0,0,157.9,259.91Z M393.36,166.19,393,188.91l-.24,15.34a51.59,51.59,0,0,0,0,8c.82,5.72,5.74,9.45,11.33,9.6l8.65.22,31.74.84,12.58.33c2.68.07,5.6.49,8-1a7.45,7.45,0,0,0,3.42-6.42c0-1.09,0-2.18,0-3.26V198.35c0-8.06.13-16.13,0-24.19a7.66,7.66,0,0,0-5.5-7.31,17.37,17.37,0,0,0-2.27-.39l-9.64-1.28L419.41,161l-12.7-1.69c-2.13-.28-4.62-.92-6.78-.59A7.81,7.81,0,0,0,393.36,166.19Z M397.5,329.17v22.34c0,7.58-.14,15.17,0,22.74a7.1,7.1,0,0,0,6.47,7,9.27,9.27,0,0,0,3.31-.49l8.77-2.45,30.43-8.53c6-1.69,12.17-3.22,18.17-5.09a11,11,0,0,0,7.45-8.11,16.75,16.75,0,0,0,.22-3.87l-.23-12.25c-.16-8.5-.18-17-.47-25.5a5.67,5.67,0,0,0-5.58-5.59,13.67,13.67,0,0,0-2.11.26l-9.76,1.45-31.5,4.68-12.09,1.8c-2.81.41-5.63.64-8.07,2.27A11.31,11.31,0,0,0,397.5,329.17Z"/></svg>