<svg id="Ebene_1" data-name="Ebene 1" xmlns="http://www.w3.org/2000/svg" viewBox="0 0 399 485">
<title>windowIcon</title><rect x="1" width="63" height="96"/>
<rect y="201" width="63" height="69"/><rect x="336" y="202" width="63" height="69"/>
<rect x="33" y="104" width="31" height="90"/>
<rect x="71" y="72" width="21" height="366"/>
<rect x="89" y="416" width="218" height="22"/>
<rect x="89" y="72" width="218" height="22"/>
<rect x="192" y="92" width="15" height="326"/>
<rect x="91" y="218" width="218" height="11"/>
<rect x="307" y="72" width="21" height="366"/>
<rect x="32" y="277" width="31" height="90"/>
<rect x="2" y="373" width="62" height="70"/>
<rect x="335" y="373" width="62" height="70"/>
<rect x="336" y="103" width="31" height="90"/>
<rect x="336" y="277" width="31" height="90"/>
<rect x="335" width="63" height="96"/>
<rect x="72" y="31" width="255" height="30"/>
<rect x="122" y="1" width="155" height="22"/>
<polygon points="44 485 355 485 348 448 52 447 44 485"/></svg>