<svg id="Ebene_1" data-name="Ebene 1" xmlns="http://www.w3.org/2000/svg" width="399.06" height="485.05" viewBox="0 0 399.06 485.05"><title>window</title>
<path d="M53,8.3c0-.28-.13-1.16.07-1.3S54,7,54.15,7H116v94.68a3.91,3.91,0,0,1,0,1.08c0,.14,0,.17,0,.24s-.87,0-1,0H53.64c-.63,0-.64.12-.64-.49V39.64 M52,210.4v-1.6c0-.13-.08-.63,0-.74s1-.06,1.21-.06H115v68.15c0,.41.11.7-.16.85a3.36,3.36,0,0,1-1,0H62.11c-3.21,0-6.47.18-9.68,0-.49,0-.42.05-.43-.47,0-1.1,0-2.2,0-3.3V259.58 M388,223.67V209.8c0-.13-.08-.63,0-.74s1-.06,1.21-.06H451v68.15c0,.41.11.7-.16.85a3.36,3.36,0,0,1-1,0H398.11c-3.21,0-6.47.18-9.68,0-.49,0-.42.05-.43-.47,0-1.1,0-2.2,0-3.3 M85,114.17v-2.58c0-.51-.11-.48.28-.59a6.67,6.67,0,0,1,1.61,0H116v88.36c0,.29.18,1.35,0,1.58s-1.48.06-1.79.06H85.71c-.62,0-.6.15-.71-.31a9.84,9.84,0,0,1,0-2.17V156.9 M144,225v10.38c0,.1.06.49,0,.56a1.38,1.38,0,0,1-.84.06c-.28-.15-.16-.61-.16-1v-9.37C143,224.8,143.11,225,144,225Z M259,423a6,6,0,0,1,0,1.79c-.13.32,0,.13-.33.21a16.05,16.05,0,0,1-3.1,0h-9.26c-.37,0-2,.25-2.28,0s0-1.06,0-1.3c0-.43-.1-.55.17-.7s.74,0,1,0H259Z M259,423a6,6,0,0,1,0,1.79c-.13.32,0,.13-.33.21a16.05,16.05,0,0,1-3.1,0h-9.26c-.37,0-2,.25-2.28,0s0-1.06,0-1.3c0-.43-.1-.55.17-.7s.74,0,1,0H259Z M176,445H377.59c.33,0,2.16.25,2.41,0s0-1.71,0-2V80.94c0-.27.2-1.73,0-1.94s-.52,0-.6,0H123V442.93c0,.29-.22,1.84,0,2.06s2,0,2.29,0h18.29M359,423H261.32c-.62,0-1.24,0-1.85,0s-.47.22-.47,1.1.21.84-.44.9-1.51,0-2.25,0H246a5.74,5.74,0,0,1-1.85,0c-.55-.3.22-1.7-.3-2-.26-.15-1.06,0-1.35,0H145.38c-.43,0-1.21.17-1.38-.16-.1-.18,0-.68,0-.89V238.31c0-.4.25-1.9,0-2.24-.09-.12,0,0-.32-.07s-.56.1-.68-.07a2.42,2.42,0,0,1,0-.76v-9.5c0-.1-.07-.54,0-.63s.7.09.9,0,.1-.29.1-.54V102.51c0-.39-.16-1.33.12-1.51s1,0,1.31,0h97.14c.27,0,1.08-.15,1.31,0s0,0,.12.21a4.36,4.36,0,0,1,0,1.3V222.77c0,.31.24,2,0,2.23-.08.08-.68,0-.78,0h-97c-.6,0-1.21,0-1.81,0s-.35-.11-.44.36a14.48,14.48,0,0,0,0,2.55v6.89c0,.17-.12,1.08,0,1.2s.69,0,.8,0h96.95c.33,0,2-.22,2.25,0s0,1.66,0,2v182a11.92,11.92,0,0,0,0,2.8c.09.33-.09.12.17.27a5.74,5.74,0,0,0,1.85,0h10.37c.39,0,2.34.26,2.61,0s0-1.61,0-1.89v-182a12.26,12.26,0,0,1,0-2.84c0-.09,0-.24,0-.29s.83,0,1,0h97.07a8.07,8.07,0,0,1,1.63,0c.46.1.31.15.31.72V423ZM259,101.65c0-.84.07-.65.93-.65h97.75c.21,0,1.1-.14,1.27,0s0,.24.05.4c.14,1.52,0,3.12,0,4.65V225H260.4c-.24,0-1.13.15-1.33,0s-.07-1.67-.07-2V143.79 M144,225v10.38c0,.1.06.49,0,.56a1.38,1.38,0,0,1-.84.06c-.28-.15-.16-.61-.16-1v-9.37C143,224.8,143.11,225,144,225Z M84,287.17v-2.58c0-.51-.11-.48.28-.59a6.67,6.67,0,0,1,1.61,0H115v88.36c0,.29.18,1.35,0,1.58s-1.48.06-1.79.06H84.71c-.62,0-.6.15-.71-.31a9.84,9.84,0,0,1,0-2.17V329.9 M54,383v-1.74a3.29,3.29,0,0,1,0-1c.14-.36.35-.22.84-.22H116v68.79c0,.24.12,1.07,0,1.21s-.64,0-.75,0H64.26c-3.26,0-6.57.18-9.82,0-.5,0-.43.06-.44-.46,0-1.07,0-2.15,0-3.22V432.73 M447.23,380H449v68.79c0,.24.12,1.07,0,1.21s-.64,0-.75,0H397.26c-3.26,0-6.57.18-9.82,0-.5,0-.43.06-.44-.46,0-1.07,0-2.15,0-3.22V381.21a3.29,3.29,0,0,1,0-1c.14-.36.35-.22.84-.22 M388,123.43V110.59c0-.51-.11-.48.28-.59a6.67,6.67,0,0,1,1.61,0H419v88.36c0,.29.18,1.35,0,1.58s-1.48.06-1.79.06h-28.5c-.62,0-.6.15-.71-.31a9.84,9.84,0,0,1,0-2.17V187.8 M388,287.17v-2.58c0-.51-.11-.48.28-.59a6.67,6.67,0,0,1,1.61,0H419v88.36c0,.29.18,1.35,0,1.58s-1.48.06-1.79.06h-28.5c-.62,0-.6.15-.71-.31a9.84,9.84,0,0,1,0-2.17V329.9 M430.88,7H450v94.68a3.91,3.91,0,0,1,0,1.08c-.05.14,0,.17-.05.24s-.87,0-1.05,0H387.64c-.63,0-.64.12-.64-.49V8.3c0-.28-.13-1.16.07-1.3s.89,0,1.08,0h2.28 M296.51,38H379V61.35c0,2.06.11,4.16,0,6.22,0,.52.09.33-.27.43a5.14,5.14,0,0,1-1.3,0H124.52c-.08,0-.46,0-.52,0s0-1.09,0-1.27V40.57a14.82,14.82,0,0,1,0-2.21c.07-.49-.09-.27.3-.36a6,6,0,0,1,1.34,0h130 M299.93,8H329V29.19c0,.12.08.7,0,.79s-.21,0-.29,0a12,12,0,0,1-2.61,0H177a14,14,0,0,1-2.67,0c-.06,0-.28,0-.32,0-.25-.24,0-2,0-2.35V8.73c0-.1-.08-.64,0-.72s1.12,0,1.32,0H251.5 M167.47,454.21l24.08.09,25.95.08,27,.09,27.23.1,26.63.09,25.21.08,23,.08,19.89.07,16,.05,11.27,0,5.73,0c.41,0,.43-.07.6.19a8.45,8.45,0,0,1,.46,2.48l.88,4.61L406,486.9l1,5.1H96l3.63-17.25c1.42-6.76,2.78-13.54,4.27-20.29.12-.54,0-.43.53-.46.66,0,1.32,0,2,0l8.33,0,13.5,0"/></svg>